HIERARCHY
ROOT Hips
{
    OFFSET 13.847148895263672 94.44254684448242 -18.282005310058594
    CHANNELS 6 Xposition Yposition Zposition Zrotation Xrotation Yrotation
    JOINT RightUpLeg
    {
        OFFSET -13.847148895263672 0.0 0.0
        CHANNELS 3 Zrotation Xrotation Yrotation
        JOINT RightLeg
        {
            OFFSET 0.0 -48.7375373840332 0.0
            CHANNELS 3 Zrotation Xrotation Yrotation
            JOINT RightFoot
            {
                OFFSET 0.0 -45.70500946044922 0.0
                CHANNELS 3 Zrotation Xrotation Yrotation
                End Site
                {
                    OFFSET 0.0 0.0 18.282005310058594
                }
            }
        }
    }
    JOINT LeftUpLeg
    {
        OFFSET 13.847148895263672 0.0 0.0
        CHANNELS 3 Zrotation Xrotation Yrotation
        JOINT LeftLeg
        {
            OFFSET 0.0 -48.7375373840332 0.0
            CHANNELS 3 Zrotation Xrotation Yrotation
            JOINT LeftFoot
            {
                OFFSET 0.0 -45.70500946044922 0.0
                CHANNELS 3 Zrotation Xrotation Yrotation
                End Site
                {
                    OFFSET 0.0 0.0 18.282005310058594
                }
            }
        }
    }
    JOINT Spine
    {
        OFFSET 0.0 25.440725326538086 0.0
        CHANNELS 3 Zrotation Xrotation Yrotation
        JOINT Spine3
        {
            OFFSET 0.0 26.365293502807617 0.0
            CHANNELS 3 Zrotation Xrotation Yrotation
            JOINT Neck
            {
                OFFSET 0.0 10.940889358520508 0.0
                CHANNELS 3 Zrotation Xrotation Yrotation
                End Site
                {
                    OFFSET 0.0 4.37635612487793 0.0
                }
            }
            JOINT LeftArm
            {
                OFFSET 14.845487594604492 0.0 0.0
                CHANNELS 3 Zrotation Xrotation Yrotation
                JOINT LeftForeArm
                {
                    OFFSET 29.455917358398438 0.0 0.0
                    CHANNELS 3 Zrotation Xrotation Yrotation
                    JOINT LeftHand
                    {
                        OFFSET 21.72846221923828 0.0 0.0
                        CHANNELS 3 Zrotation Xrotation Yrotation
                        End Site
                        {
                            OFFSET 8.691386222839355 0.0 0.0
                        }
                    }
                }
            }
            JOINT RightArm
            {
                OFFSET -14.845487594604492 0.0 0.0
                CHANNELS 3 Zrotation Xrotation Yrotation
                JOINT RightForeArm
                {
                    OFFSET -29.455917358398438 0.0 0.0
                    CHANNELS 3 Zrotation Xrotation Yrotation
                    JOINT RightHand
                    {
                        OFFSET -21.72846221923828 0.0 0.0
                        CHANNELS 3 Zrotation Xrotation Yrotation
                        End Site
                        {
                            OFFSET -8.691386222839355 0.0 0.0
                        }
                    }
                }
            }
        }
    }
}
MOTION
Frames: 9
Frame Time: 0.03333333333333333
0.0006320018437691033 96.11339569091797 -0.0006860016728751361 2.3466613375730314 -2.676425642282926 42.924508713742334 3.031676676153679 2.6638190341157606 -0.02213823683208752 -1.4253079199545249 8.320307804564706 0.14377067882836092 1.9878466759146977e-16 -2.8233482668191933e-33 -1.6275494659051586e-15 9.002440663818465 0.8963546423823427 -0.09899445776658783 -2.566931378507492 8.182926400566451 -0.5508070218547182 0.0 0.0 -1.5405811738338909e-15 -12.019682663005414 28.326129518306605 7.0480549711855245 -1.0125509604811645e-06 -9.154949076530805e-07 -4.472987307238557 8.70255866936716 -1.8129186670619204 149.92431538661174 124.45081304835179 -28.937310715572828 -178.59964352980867 -1.9093667577260867e-06 -9.341193514104999e-07 36.59199343220756 -9.690752545084152e-16 0.0 0.0 -104.78621807725438 -50.413706375959215 -162.86334665869543 1.1897580710657656e-06 1.0580835120644427e-06 -38.00381537615758 0.0 0.0 0.0
0.0005880605312995613 96.11345672607422 -0.000672860536724329 1.977047563766331 -2.4016843366841605 43.38221904452161 2.5960688063539448 2.060544893340352 0.003747882613729754 -1.1837469189834118 7.957450098649061 0.18566882205717347 0.0 0.0 2.3978400528221045e-15 8.6474565833989 0.7899456473582867 -0.08003896532653978 -2.789040768082826 8.301749082154753 -0.4528824323536507 -7.951386703658791e-16 -1.9655676483504613e-32 2.8326815131784443e-15 -12.024780813990596 28.13768995069901 7.084361556283212 2.7626783601278724e-07 -4.494995875134274e-07 -3.814319614957887 8.672518735983518 -1.1376732027394545 149.33850433695292 122.63390252530483 -31.318334969499222 179.29329707842913 1.3832876463639565e-06 -1.2908069395958113e-06 37.42497766809546 1.8511822169455624e-15 0.0 0.0 -102.06286640900969 -52.647951416912655 -160.11025153163325 1.94209007874293e-06 -1.8831187731444956e-06 -36.80700241995636 3.531125038440127e-31 6.3611093629270335e-15 -6.3611093629270335e-15
0.0005873998743481934 96.11344146728516 -0.0006320009706541896 1.796130287112121 -2.2172827103398505 44.611509944737044 2.1006352929030427 1.5638565467015941 0.01904035311770645 -0.9664898631985719 8.022444765587371 0.2431333235254007 4.849262290338309e-33 9.939233379573489e-17 -5.590818776010087e-15 8.225843306067878 0.8496277446123351 -0.07786205161749334 -3.2879350625859924 8.50882466342536 -0.30942083183948704 0.0 0.0 -1.292100339344554e-15 -11.89802643021707 28.492794463820573 7.163440691797721 -8.257252334022654e-07 -1.0911941022491857e-06 -3.367242492537624 9.284131928130805 -0.5465993106602541 150.30541547100364 120.84712529083244 -33.30878926844009 178.32913225618927 -2.0661066803084797e-07 9.139859200352741e-08 37.59221605466057 -2.5065504179111886e-15 -1.576212296955381e-32 7.205944200190778e-16 -99.79123532987293 -54.18784425638264 -157.19478125571766 -2.421473845051383e-07 1.0876192516421145e-05 -35.62895911303929 1.2722218725854067e-14 0.0 0.0
0.0007044533267617226 96.11346435546875 -0.0005357397021725774 1.0736943379797206 -1.843137446303597 45.55976339282364 1.862989126142189 0.377018071405865 0.005427231200197199 -0.6412948203987902 7.861173181418173 0.2552294589920123 1.9878466759146985e-16 -1.5884028035463706e-32 -9.15651875093208e-15 8.112019625180027 0.36746128612628015 -0.029867328897365326 -3.2287709496361243 8.979573755883434 -0.2849505978572 -3.432200087717226e-33 4.969616689786745e-17 7.914114578485392e-15 -11.173007041563084 27.69052675400456 6.728658089090067 1.2311542564262035e-06 2.5486563792203354e-06 -2.5244130424620006 8.690264041777626 0.6851420652153027 152.03811784659163 117.52943131156931 -41.11096166626147 175.74777117017356 -5.58520423017041e-06 -1.8641864109611382e-06 36.80630199190391 -1.3697506001224714e-15 1.9878466759146977e-16 9.939233379573489e-17 -96.43883432827575 -55.7572210751962 -152.33832134010981 1.7582701954246644e-06 7.681892319417238e-07 -35.413724202219406 1.7655625192200634e-31 6.361109362927032e-15 -3.180554681463516e-15
0.0007480534841306508 96.11348724365234 -0.00046765271690674126 0.9638327211978872 -1.035294435023696 46.9235082330104 1.0062089139019255 -0.27822500158936 -0.010649872824871244 -0.6934851410123541 7.609531933515429 0.2993200956043967 7.951386703658791e-16 -6.957463365701444e-16 -9.268335126452279e-15 7.391687292283601 0.09518008239990916 -0.005018017079045134 -3.085764479458798 9.168795413015609 -0.281007338205769 0.0 0.0 8.970158125065076e-15 -12.00072515910948 27.617716272992578 6.864784772800115 -4.159400063432761e-07 -9.138467637844959e-07 -2.130872889523313 9.380532687274023 1.5197250599244094 152.4675022342068 113.96434704276386 -43.26050374814581 170.42482516252724 2.8064713709681517e-06 5.504541614847161e-07 40.316981649858135 -3.174342660601283e-15 0.0 0.0 -95.02746362247272 -55.28303851303363 -149.55669120003245 -5.654350397802259e-06 1.7343785654594128e-06 -37.380293763524506 0.0 0.0 -6.361109362927033e-15
0.0007146409479901195 96.11357116699219 -0.0005328838597051799 0.729852907707405 -0.6989010298212052 48.1710672238693 0.3804491855869212 -0.7009781999383115 -0.02708876867073785 0.0024680450646140453 7.559982943732105 0.2614008461424242 7.951386703658792e-16 -8.534701630995424e-33 -1.2299801307222194e-15 6.69532861710627 0.068278890189423 -0.0024372957708291114 -2.3932778570838815 8.594189332510751 -0.29339325812818745 4.969616689786744e-16 1.5902773407317582e-15 -1.1181637552020175e-16 -12.310224281478318 27.514203769736834 6.893014666908957 -2.5433631403802206e-06 2.5679093705310946e-07 -1.8057002488226186 10.083119937777628 2.7744442765991315 152.37801555211257 109.85040737741743 -45.06454659173701 164.67909727561297 -7.131725502583592e-07 4.090072628180275e-06 43.5948415910123 7.673010518769956e-15 -3.975693351829396e-16 -5.466578358765419e-16 -92.35826467100098 -55.28895752036136 -146.62464527489513 -1.7694253168805698e-06 4.795746326806966e-07 -38.518827331072146 6.3611093629270335e-15 -3.531125038440127e-31 -6.3611093629270335e-15
0.0007039534393697977 96.11367797851562 -0.0006139540346339345 0.5870140203770385 -0.7275245560696505 49.32647691363965 0.26465168344748774 -0.6998600464621517 -0.02869366962523857 0.5615574743815265 7.613688663099498 0.20841121752005423 -3.975693351829396e-16 -3.0302501245402944e-32 8.734101332300204e-15 6.255485366441219 0.44998722233147465 -0.0279609503413283 -1.7187314915318006 7.488528341982646 -0.28274345157914266 3.9756933518293955e-16 1.5902773407317584e-15 3.64024422526879e-15 -12.948426430396019 27.712759197751154 7.265989283591032 8.260856712100632e-08 -4.942550052518034e-07 -1.4889397778153304 11.202611683823214 3.4955021964084967 150.6386318363372 109.31872547499741 -36.81432524684672 160.93991292082956 3.3240385187468455e-06 4.917550373163144e-06 48.758068593294354 8.348956038841732e-15 -7.951386703658792e-16 -7.951386703658791e-16 -92.09140902775289 -53.60916369800697 -146.84287037082754 -1.5994657304756067e-07 -4.537015815666805e-06 -39.43993522939154 6.3611093629270335e-15 1.7655625192200634e-31 3.1805546814635168e-15
0.0007237608078867197 96.11371612548828 -0.0005978104891255498 0.7697802628887206 -0.6154691100586516 51.006303334444446 0.09153965498025386 -0.6616707457711846 -0.026583855970979144 0.5216778880380342 7.7363805540554935 0.2071976020136759 -3.975693351829396e-16 4.310455369189608e-34 -1.2424041724466862e-16 5.872536065914686 0.8867512725735264 -0.05535963706439465 -1.5795483259089433 6.465720674542828 -0.24462144047770043 -5.963540027744092e-16 -7.951386703658792e-16 9.554088086115016e-15 -12.614249334679316 28.54269435133902 7.1705122182282865 -7.529970616936389e-07 1.8616392203725703e-06 -1.5536367543864935 11.038387710135211 3.428495360012513 151.41666480111064 109.61141711509667 -35.8287121953179 161.4794572200784 4.001046724868503e-07 -1.9231399692768695e-06 49.93562724084223 -1.1529510720305246e-14 1.590277340731758e-15 1.6000410330431826e-31 -92.21143532267205 -53.240653063236856 -146.49260279163397 3.207219586591333e-07 1.7501955915104923e-06 -41.397443029936674 0.0 0.0 -9.541664044390553e-15
0.0007521901279687881 96.11373901367188 -0.0005918736569583416 0.7194986534855002 -0.5239842783838364 52.04716359838919 -0.09113906486501597 -0.9480688924502244 -0.038011908223264515 0.5172992996802335 8.044501200358761 0.22463686292897483 3.975693351829395e-16 5.6035919799464905e-33 1.6151254241806917e-15 5.563110275832607 0.9182988660398131 -0.05430063224076526 -1.4746191183120905 5.6960711573952105 -0.20730339950050825 1.9878466759146985e-16 9.939233379573495e-17 7.168672075017381e-15 -12.033579101391224 29.19707547998735 6.959826344393004 -7.73873713188143e-07 -8.780739064484229e-07 -1.5280220880943796 10.705397206639148 3.5107584654096304 150.88107338608987 109.54525732072086 -35.57427825697272 162.17680371448677 -8.731535462218518e-07 -2.1152442253871782e-06 50.61288840738848 -5.9635400277440935e-15 -7.951386703658792e-16 -4.1380371544220234e-32 -93.32975529677229 -52.1965737256412 -147.1673267390096 3.275085996161118e-07 3.0597704700650294e-06 -42.40650069680839 0.0 3.180554681463516e-15 0.0
